<svg version="1.2" xmlns="http://www.w3.org/2000/svg" viewBox="0 0 723 498" width="723" height="498"><style>tspan{white-space:pre}.a{fill:#f6f6f6;stroke:#626262;stroke-width:1.5}.b{opacity:0;fill:#fff;stroke:#fff;stroke-linecap:round;stroke-linejoin:round;stroke-width:NaN}.c{font-size: 13px;fill: #000000;font-family: "Arial"}.d{font-size: 11px;fill: #000000;font-weight: 400;font-family: "Actor-Regular", "Actor"}.e{fill:none;stroke:#000;stroke-linecap:round;stroke-linejoin:round}</style><path class="a" d="m113.5 86.1c144.7-83.6 325.5 20.8 325.5 187.9 0 77.5-41.4 149.2-108.5 187.9-144.7 83.5-325.5-20.9-325.5-187.9 0-77.5 41.4-149.2 108.5-187.9z"/><path class="a" d="m389.8 86.4c146.3-84.5 329.2 21.1 329.2 190.1 0 78.4-41.8 150.9-109.7 190.1-146.4 84.5-329.3-21.1-329.3-190.1 0-78.4 41.8-150.9 109.8-190.1z"/><path class="b" d="m140 65h150v37h-150z"/><text style="transform:matrix(1,0,0,1,188,89.5)" ><tspan x="0" y="0" class="c">Fiction
</tspan></text><path class="b" d="m460 135h149.1v47h-149.1z"/><text style="transform:matrix(1,0,0,1,482.529,144.998)" ><tspan x="0" y="0" class="d">Nonfiction 
</tspan></text><text style="transform:matrix(1,0,0,1,542.529,144.998)" ><tspan x="0" y="0" class="d">is 
</tspan></text><text style="transform:matrix(1,0,0,1,554.529,144.998)" ><tspan x="0" y="0" class="d">about 
</tspan></text><text style="transform:matrix(1,0,0,1,488.529,159.998)" ><tspan x="0" y="0" class="d">events 
</tspan></text><text style="transform:matrix(1,0,0,1,526.529,159.998)" ><tspan x="0" y="0" class="d">that 
</tspan></text><text style="transform:matrix(1,0,0,1,551.529,159.998)" ><tspan x="0" y="0" class="d">really 
</tspan></text><text style="transform:matrix(1,0,0,1,506.029,178.998)" ><tspan x="0" y="0" class="d">happened.
</tspan></text><path class="b" d="m141.8 111.9h118.2v54.6h-118.2z"/><text style="transform:matrix(1,0,0,1,158.9,125.687)" ><tspan x="0" y="0" class="d">Fiction 
</tspan></text><text style="transform:matrix(1,0,0,1,198.9,125.687)" ><tspan x="0" y="0" class="d">is 
</tspan></text><text style="transform:matrix(1,0,0,1,210.9,125.687)" ><tspan x="0" y="0" class="d">about 
</tspan></text><text style="transform:matrix(1,0,0,1,150.4,140.687)" ><tspan x="0" y="0" class="d">events 
</tspan></text><text style="transform:matrix(1,0,0,1,188.4,140.687)" ><tspan x="0" y="0" class="d">that 
</tspan></text><text style="transform:matrix(1,0,0,1,213.4,140.687)" ><tspan x="0" y="0" class="d">did 
</tspan></text><text style="transform:matrix(1,0,0,1,233.4,140.687)" ><tspan x="0" y="0" class="d">not 
</tspan></text><text style="transform:matrix(1,0,0,1,162.9,159.687)" ><tspan x="0" y="0" class="d">really 
</tspan></text><text style="transform:matrix(1,0,0,1,194.9,159.687)" ><tspan x="0" y="0" class="d">happen.
</tspan></text><path class="b" d="m310 173.5h97v41.8h-97z"/><text style="transform:matrix(1,0,0,1,326.003,169.404)" ><tspan x="0" y="0" class="d">They 
</tspan></text><text style="transform:matrix(1,0,0,1,355.003,169.404)" ><tspan x="0" y="0" class="d">both 
</tspan></text><text style="transform:matrix(1,0,0,1,383.003,169.404)" ><tspan x="0" y="0" class="d">tell 
</tspan></text><text style="transform:matrix(1,0,0,1,343.003,188.404)" ><tspan x="0" y="0" class="d">stories.
</tspan></text><path class="b" d="m280 215h150v37h-150z"/><text style="transform:matrix(1,0,0,1,295.5,212.5)" ><tspan x="0" y="0" class="d">Fiction 
</tspan></text><text style="transform:matrix(1,0,0,1,335.5,212.5)" ><tspan x="0" y="0" class="d">and 
</tspan></text><text style="transform:matrix(1,0,0,1,359.5,212.5)" ><tspan x="0" y="0" class="d">nonfiction 
</tspan></text><text style="transform:matrix(1,0,0,1,290.5,227.5)" ><tspan x="0" y="0" class="d">books 
</tspan></text><text style="transform:matrix(1,0,0,1,326.5,227.5)" ><tspan x="0" y="0" class="d">can 
</tspan></text><text style="transform:matrix(1,0,0,1,349.5,227.5)" ><tspan x="0" y="0" class="d">both 
</tspan></text><text style="transform:matrix(1,0,0,1,377.5,227.5)" ><tspan x="0" y="0" class="d">be 
</tspan></text><text style="transform:matrix(1,0,0,1,393.5,227.5)" ><tspan x="0" y="0" class="d">filled 
</tspan></text><text style="transform:matrix(1,0,0,1,287,246.5)" ><tspan x="0" y="0" class="d">with 
</tspan></text><text style="transform:matrix(1,0,0,1,313,246.5)" ><tspan x="0" y="0" class="d">people 
</tspan></text><text style="transform:matrix(1,0,0,1,352,246.5)" ><tspan x="0" y="0" class="d">and 
</tspan></text><text style="transform:matrix(1,0,0,1,376,246.5)" ><tspan x="0" y="0" class="d">animals.
</tspan></text><path class="b" d="m455 190h201v36.9h-201z"/><text style="transform:matrix(1,0,0,1,472.025,202.44)" ><tspan x="0" y="0" class="d">Nonfiction 
</tspan></text><text style="transform:matrix(1,0,0,1,532.025,202.44)" ><tspan x="0" y="0" class="d">books 
</tspan></text><text style="transform:matrix(1,0,0,1,568.025,202.44)" ><tspan x="0" y="0" class="d">are 
</tspan></text><text style="transform:matrix(1,0,0,1,588.025,202.44)" ><tspan x="0" y="0" class="d">written 
</tspan></text><text style="transform:matrix(1,0,0,1,628.025,202.44)" ><tspan x="0" y="0" class="d">to 
</tspan></text><text style="transform:matrix(1,0,0,1,528.025,221.44)" ><tspan x="0" y="0" class="d">inform 
</tspan></text><text style="transform:matrix(1,0,0,1,567.025,221.44)" ><tspan x="0" y="0" class="d">us.
</tspan></text><path class="b" d="m51.8 168h150v58.3h-150z"/><text style="transform:matrix(1,0,0,1,64.8,183.65)" ><tspan x="0" y="0" class="d">Fiction 
</tspan></text><text style="transform:matrix(1,0,0,1,104.8,183.65)" ><tspan x="0" y="0" class="d">books 
</tspan></text><text style="transform:matrix(1,0,0,1,140.8,183.65)" ><tspan x="0" y="0" class="d">entertain 
</tspan></text><text style="transform:matrix(1,0,0,1,65.8,198.65)" ><tspan x="0" y="0" class="d">us 
</tspan></text><text style="transform:matrix(1,0,0,1,81.8,198.65)" ><tspan x="0" y="0" class="d">and 
</tspan></text><text style="transform:matrix(1,0,0,1,105.8,198.65)" ><tspan x="0" y="0" class="d">teach 
</tspan></text><text style="transform:matrix(1,0,0,1,138.8,198.65)" ><tspan x="0" y="0" class="d">us 
</tspan></text><text style="transform:matrix(1,0,0,1,154.8,198.65)" ><tspan x="0" y="0" class="d">to 
</tspan></text><text style="transform:matrix(1,0,0,1,168.8,198.65)" ><tspan x="0" y="0" class="d">use 
</tspan></text><text style="transform:matrix(1,0,0,1,78.8,217.65)" ><tspan x="0" y="0" class="d">our 
</tspan></text><text style="transform:matrix(1,0,0,1,99.8,217.65)" ><tspan x="0" y="0" class="d">imaginations.
</tspan></text><path class="b" d="m279.6 273.9h159.4v29h-159.4z"/><text style="transform:matrix(1,0,0,1,294.328,293.9)" ><tspan x="0" y="0" class="d">We 
</tspan></text><text style="transform:matrix(1,0,0,1,314.328,293.9)" ><tspan x="0" y="0" class="d">can 
</tspan></text><text style="transform:matrix(1,0,0,1,337.328,293.9)" ><tspan x="0" y="0" class="d">learn 
</tspan></text><text style="transform:matrix(1,0,0,1,367.328,293.9)" ><tspan x="0" y="0" class="d">from 
</tspan></text><text style="transform:matrix(1,0,0,1,396.328,293.9)" ><tspan x="0" y="0" class="d">both.
</tspan></text><path class="b" d="m304.5 304h122.5v31.1h-122.5z"/><text style="transform:matrix(1,0,0,1,322.764,325.011)" ><tspan x="0" y="0" class="d">Both 
</tspan></text><text style="transform:matrix(1,0,0,1,350.764,325.011)" ><tspan x="0" y="0" class="d">have 
</tspan></text><text style="transform:matrix(1,0,0,1,379.764,325.011)" ><tspan x="0" y="0" class="d">titles.
</tspan></text><path class="b" d="m15.6 239.2h165.1v48.9h-165.1z"/><text style="transform:matrix(1,0,0,1,28.622,257.63)" ><tspan x="0" y="0" class="d">Fiction 
</tspan></text><text style="transform:matrix(1,0,0,1,68.622,257.63)" ><tspan x="0" y="0" class="d">has 
</tspan></text><text style="transform:matrix(1,0,0,1,91.622,257.63)" ><tspan x="0" y="0" class="d">dialogue 
</tspan></text><text style="transform:matrix(1,0,0,1,141.622,257.63)" ><tspan x="0" y="0" class="d">from 
</tspan></text><text style="transform:matrix(1,0,0,1,68.122,276.63)" ><tspan x="0" y="0" class="d">characters.
</tspan></text><path class="b" d="m7.9 290.4h166.3v39.7h-166.3z"/><text style="transform:matrix(1,0,0,1,12.072,304.237)" ><tspan x="0" y="0" class="d">You 
</tspan></text><text style="transform:matrix(1,0,0,1,36.072,304.237)" ><tspan x="0" y="0" class="d">can 
</tspan></text><text style="transform:matrix(1,0,0,1,59.072,304.237)" ><tspan x="0" y="0" class="d">find 
</tspan></text><text style="transform:matrix(1,0,0,1,83.072,304.237)" ><tspan x="0" y="0" class="d">illustrations 
</tspan></text><text style="transform:matrix(1,0,0,1,150.072,304.237)" ><tspan x="0" y="0" class="d">in 
</tspan></text><text style="transform:matrix(1,0,0,1,163.072,304.237)" ><tspan x="0" y="0" class="d">a 
</tspan></text><text style="transform:matrix(1,0,0,1,57.572,323.237)" ><tspan x="0" y="0" class="d">fiction 
</tspan></text><text style="transform:matrix(1,0,0,1,94.572,323.237)" ><tspan x="0" y="0" class="d">book.
</tspan></text><path class="b" d="m105 385h150v37h-150z"/><text style="transform:matrix(1,0,0,1,140.5,409)" ><tspan x="0" y="0" class="d">There 
</tspan></text><text style="transform:matrix(1,0,0,1,173.5,409)" ><tspan x="0" y="0" class="d">is 
</tspan></text><text style="transform:matrix(1,0,0,1,185.5,409)" ><tspan x="0" y="0" class="d">a 
</tspan></text><text style="transform:matrix(1,0,0,1,195.5,409)" ><tspan x="0" y="0" class="d">plot.
</tspan></text><path class="b" d="m25 335h215.1v29.6h-215.1z"/><text style="transform:matrix(1,0,0,1,65.575,355.296)" ><tspan x="0" y="0" class="d">There 
</tspan></text><text style="transform:matrix(1,0,0,1,98.575,355.296)" ><tspan x="0" y="0" class="d">is 
</tspan></text><text style="transform:matrix(1,0,0,1,110.575,355.296)" ><tspan x="0" y="0" class="d">usually 
</tspan></text><text style="transform:matrix(1,0,0,1,152.575,355.296)" ><tspan x="0" y="0" class="d">a 
</tspan></text><text style="transform:matrix(1,0,0,1,162.575,355.296)" ><tspan x="0" y="0" class="d">theme.
</tspan></text><path class="b" d="m455 235h214.9v42.6h-214.9z"/><text style="transform:matrix(1,0,0,1,471.975,250.297)" ><tspan x="0" y="0" class="d">Nonfiction 
</tspan></text><text style="transform:matrix(1,0,0,1,531.975,250.297)" ><tspan x="0" y="0" class="d">books 
</tspan></text><text style="transform:matrix(1,0,0,1,567.975,250.297)" ><tspan x="0" y="0" class="d">usually 
</tspan></text><text style="transform:matrix(1,0,0,1,609.975,250.297)" ><tspan x="0" y="0" class="d">have 
</tspan></text><text style="transform:matrix(1,0,0,1,638.975,250.297)" ><tspan x="0" y="0" class="d">an 
</tspan></text><text style="transform:matrix(1,0,0,1,509.975,269.297)" ><tspan x="0" y="0" class="d">index 
</tspan></text><text style="transform:matrix(1,0,0,1,541.975,269.297)" ><tspan x="0" y="0" class="d">and 
</tspan></text><text style="transform:matrix(1,0,0,1,565.975,269.297)" ><tspan x="0" y="0" class="d">glossary.
</tspan></text><path class="b" d="m445 280h246.9v37.8h-246.9z"/><text style="transform:matrix(1,0,0,1,469.975,292.884)" ><tspan x="0" y="0" class="d">There 
</tspan></text><text style="transform:matrix(1,0,0,1,502.975,292.884)" ><tspan x="0" y="0" class="d">are 
</tspan></text><text style="transform:matrix(1,0,0,1,522.975,292.884)" ><tspan x="0" y="0" class="d">usually 
</tspan></text><text style="transform:matrix(1,0,0,1,564.975,292.884)" ><tspan x="0" y="0" class="d">main 
</tspan></text><text style="transform:matrix(1,0,0,1,595.975,292.884)" ><tspan x="0" y="0" class="d">ideas 
</tspan></text><text style="transform:matrix(1,0,0,1,627.975,292.884)" ><tspan x="0" y="0" class="d">in 
</tspan></text><text style="transform:matrix(1,0,0,1,640.975,292.884)" ><tspan x="0" y="0" class="d">each 
</tspan></text><text style="transform:matrix(1,0,0,1,491.475,311.884)" ><tspan x="0" y="0" class="d">section 
</tspan></text><text style="transform:matrix(1,0,0,1,533.475,311.884)" ><tspan x="0" y="0" class="d">of 
</tspan></text><text style="transform:matrix(1,0,0,1,547.475,311.884)" ><tspan x="0" y="0" class="d">a 
</tspan></text><text style="transform:matrix(1,0,0,1,557.475,311.884)" ><tspan x="0" y="0" class="d">nonfiction 
</tspan></text><text style="transform:matrix(1,0,0,1,615.475,311.884)" ><tspan x="0" y="0" class="d">book.
</tspan></text><path class="b" d="m440 330h246.2v44.4h-246.2z"/><text style="transform:matrix(1,0,0,1,454.575,332.207)" ><tspan x="0" y="0" class="d">Nonfiction 
</tspan></text><text style="transform:matrix(1,0,0,1,514.575,332.207)" ><tspan x="0" y="0" class="d">books 
</tspan></text><text style="transform:matrix(1,0,0,1,550.575,332.207)" ><tspan x="0" y="0" class="d">have 
</tspan></text><text style="transform:matrix(1,0,0,1,579.575,332.207)" ><tspan x="0" y="0" class="d">photographs 
</tspan></text><text style="transform:matrix(1,0,0,1,652.575,332.207)" ><tspan x="0" y="0" class="d">and 
</tspan></text><text style="transform:matrix(1,0,0,1,505.075,351.207)" ><tspan x="0" y="0" class="d">sometimes 
</tspan></text><text style="transform:matrix(1,0,0,1,568.075,351.207)" ><tspan x="0" y="0" class="d">diagrams.
</tspan></text><path class="b" d="m425.4 368.2h265.6v11.6h-265.6z"/><text style="transform:matrix(1,0,0,1,461.694,367.982)" ><tspan x="0" y="0" class="d">Nonfiction 
</tspan></text><text style="transform:matrix(1,0,0,1,521.694,367.982)" ><tspan x="0" y="0" class="d">books 
</tspan></text><text style="transform:matrix(1,0,0,1,557.694,367.982)" ><tspan x="0" y="0" class="d">have 
</tspan></text><text style="transform:matrix(1,0,0,1,586.694,367.982)" ><tspan x="0" y="0" class="d">heading 
</tspan></text><text style="transform:matrix(1,0,0,1,633.694,367.982)" ><tspan x="0" y="0" class="d">and 
</tspan></text><text style="transform:matrix(1,0,0,1,456.694,386.982)" ><tspan x="0" y="0" class="d">subheadings 
</tspan></text><text style="transform:matrix(1,0,0,1,529.694,386.982)" ><tspan x="0" y="0" class="d">to 
</tspan></text><text style="transform:matrix(1,0,0,1,543.694,386.982)" ><tspan x="0" y="0" class="d">help 
</tspan></text><text style="transform:matrix(1,0,0,1,569.694,386.982)" ><tspan x="0" y="0" class="d">guide 
</tspan></text><text style="transform:matrix(1,0,0,1,602.694,386.982)" ><tspan x="0" y="0" class="d">the 
</tspan></text><text style="transform:matrix(1,0,0,1,622.694,386.982)" ><tspan x="0" y="0" class="d">reader.
</tspan></text><path class="e" d=""/><path class="b" d="m433 63.8h166.1v42.9h-166.1z"/><text style="transform:matrix(1,0,0,1,475.072,91.25)" ><tspan x="0" y="0" class="c">Nonfiction
</tspan></text></svg>